<svg width="8" height="9" viewBox="0 0 8 9" fill="none" xmlns="http://www.w3.org/2000/svg">
<path d="M0 5C0 3.89543 0.895431 3 2 3H6C7.10457 3 8 3.89543 8 5V7C8 8.10457 7.10457 9 6 9H2C0.895431 9 0 8.10457 0 7V5Z" fill="#6F8F72"/>
<path d="M7.5 3.41348C7.5 4.1349 6.74541 4.10755 6.5 3.5C6.35082 3.13068 6.34281 2.41122 6 2C5.79274 1.75138 5.60165 1.50476 5.28019 1.35463C4.72234 1.0941 4.47177 0.975279 4 0.975279C3.5502 0.975279 3.35222 1.1076 2.85247 1.35463C2.46825 1.54454 2.25551 1.6825 2 2C1.67273 2.40667 1.65156 3.04443 1.5 3.41348C1.26236 3.9921 0.5 4.09076 0.5 3.41348C0.5 1.52827 2.067 0 4 0C5.933 0 7.5 1.52827 7.5 3.41348Z" fill="#6F8F72"/>
</svg>
