<svg width="81" height="104" viewBox="0 0 81 104" fill="none" xmlns="http://www.w3.org/2000/svg">
<g filter="url(#filter0_d_462_288)">
<path d="M76.3633 37.1816C76.3633 57.1642 60.1642 96 40.1816 96C20.1991 96 4 57.1642 4 37.1816C4 17.1991 20.1991 1 40.1816 1C60.1642 1 76.3633 17.1991 76.3633 37.1816Z" fill="#F3C678"/>
<path d="M44.2587 46.9471C45.2746 35.2423 58.3577 32.4334 64.7723 32.4921C65.469 35.0925 65.9453 40.4079 65.2759 42.8625C62.7848 57.9771 48.4241 60.1045 41.8531 58.6658C41.8436 58.0995 43.2429 58.6519 44.2587 46.9471Z" fill="#242F3E"/>
<path fill-rule="evenodd" clip-rule="evenodd" d="M39.6309 44.0381L39.6309 42.1847L41.4844 42.1847L41.4844 44.0381L39.6309 44.0381ZM39.6309 51.4519L39.6309 47.745L41.4844 47.745L41.4844 51.4519L39.6309 51.4519ZM39.6309 57.0122L39.6309 55.1588L41.4844 55.1588L41.4844 57.0122L39.6309 57.0122Z" fill="#242F3E"/>
<path d="M44.5611 35.3466C44.5847 37.5403 42.8547 41.8226 40.6642 41.8461C38.4736 41.8696 36.6521 37.6254 36.6286 35.4318C36.605 33.2381 38.3617 31.4408 40.5522 31.4173C42.7428 31.3938 44.5376 33.153 44.5611 35.3466Z" fill="#242F3E"/>
<path d="M41.7627 34.8015C42.2151 35.4838 42.0286 36.4038 41.3462 36.8561C40.6638 37.3085 39.7439 37.1221 39.2915 36.4397C38.8391 35.7573 39.0256 34.8374 39.708 34.385C40.3904 33.9326 41.3103 34.1191 41.7627 34.8015Z" fill="#D5D5D5"/>
<path d="M28.2375 35.4598C39.176 39.4449 38.5093 52.7241 36.8087 58.8656C34.1421 58.8656 28.9343 57.9558 26.7575 56.682C12.9347 50.404 14.5809 36.074 17.642 30.1372C18.1863 30.2737 17.299 31.4747 28.2375 35.4598Z" fill="#242F3E"/>
<path d="M47.6557 29.4679C36.6789 33.6567 28.4472 23.107 25.7034 17.3085C27.7399 15.5478 32.3159 12.8018 34.8168 12.3341C49.5054 7.98645 57.6808 19.983 59.2508 26.5239C58.7454 26.7794 58.6324 25.2792 47.6557 29.4679Z" fill="#242F3E"/>
<path fill-rule="evenodd" clip-rule="evenodd" d="M59.8333 36.6241C60.9593 36.6241 61.8721 37.5171 61.8721 38.6186C61.8721 41.2005 61.5851 43.8444 60.0625 46.382C58.5428 48.9148 55.9479 51.0892 51.8489 53.0942C50.8418 53.5868 49.6172 53.1874 49.1136 52.2022C48.6101 51.217 49.0183 50.019 50.0254 49.5264C53.7105 47.7239 55.5637 46 56.5461 44.3628C57.5256 42.7302 57.7946 40.932 57.7946 38.6186C57.7946 37.5171 58.7074 36.6241 59.8333 36.6241Z" fill="#D5D5D5"/>
<path d="M47.255 54.0455C46.4236 53.9709 45.9847 53.0244 46.4649 52.3417L49.8798 47.4867C50.36 46.804 51.3992 46.8971 51.7503 47.6543L54.2475 53.0392C54.5986 53.7965 53.9983 54.6498 53.167 54.5753L47.255 54.0455Z" fill="#D5D5D5"/>
<path fill-rule="evenodd" clip-rule="evenodd" d="M31.8693 20.0064C31.3907 19.0184 31.8036 17.8294 32.7916 17.3508C35.1076 16.2289 37.6011 15.3319 40.5245 15.5652C43.4425 15.7981 46.4959 17.1304 50.0368 19.856C50.9068 20.5257 51.0692 21.7738 50.3995 22.6437C49.7298 23.5137 48.4817 23.6761 47.6118 23.0064C44.4284 20.5559 42.0943 19.6788 40.2082 19.5283C38.3274 19.3781 36.6 19.9235 34.5249 20.9287C33.5369 21.4074 32.3479 20.9944 31.8693 20.0064Z" fill="#D5D5D5"/>
<path d="M52.7377 23.6765C53.0331 24.4572 52.3726 25.2649 51.5489 25.1304L45.6907 24.1737C44.8669 24.0392 44.4977 23.0634 45.0261 22.4172L48.7836 17.8222C49.312 17.1761 50.3417 17.3442 50.6371 18.1249L52.7377 23.6765Z" fill="#D5D5D5"/>
<path fill-rule="evenodd" clip-rule="evenodd" d="M33.7767 52.6676C33.4926 53.7281 32.4026 54.3574 31.3422 54.0733C28.8564 53.4072 26.3835 52.4549 24.3247 50.3663C22.2697 48.2816 20.8312 45.2768 19.9354 40.8991C19.7153 39.8235 20.4088 38.7732 21.4844 38.5531C22.5599 38.333 23.6103 39.0265 23.8304 40.102C24.6358 44.0378 25.8277 46.2278 27.156 47.5754C28.4806 48.919 30.1439 49.6363 32.3711 50.2331C33.4316 50.5172 34.0609 51.6072 33.7767 52.6676Z" fill="#D5D5D5"/>
<path d="M20.3911 36.2425C20.6782 35.4588 21.7061 35.2798 22.2413 35.9203L26.047 40.4755C26.5822 41.116 26.2233 42.0957 25.401 42.2389L19.5532 43.2572C18.7309 43.4004 18.062 42.5997 18.3491 41.816L20.3911 36.2425Z" fill="#D5D5D5"/>
</g>
<defs>
<filter id="filter0_d_462_288" x="0" y="1" width="80.3633" height="103" filterUnits="userSpaceOnUse" color-interpolation-filters="sRGB">
<feFlood flood-opacity="0" result="BackgroundImageFix"/>
<feColorMatrix in="SourceAlpha" type="matrix" values="0 0 0 0 0 0 0 0 0 0 0 0 0 0 0 0 0 0 127 0" result="hardAlpha"/>
<feOffset dy="4"/>
<feGaussianBlur stdDeviation="2"/>
<feComposite in2="hardAlpha" operator="out"/>
<feColorMatrix type="matrix" values="0 0 0 0 0 0 0 0 0 0 0 0 0 0 0 0 0 0 0.25 0"/>
<feBlend mode="normal" in2="BackgroundImageFix" result="effect1_dropShadow_462_288"/>
<feBlend mode="normal" in="SourceGraphic" in2="effect1_dropShadow_462_288" result="shape"/>
</filter>
</defs>
</svg>
