<svg width="208" height="219" viewBox="0 0 208 219" fill="none" xmlns="http://www.w3.org/2000/svg">
<path d="M124.398 139.894C127.209 107.509 163.407 99.7376 181.155 99.8999C183.083 107.095 184.401 121.802 182.549 128.593C175.656 170.413 135.923 176.299 117.742 172.318C117.715 170.751 121.587 172.28 124.398 139.894Z" fill="#7BCF82"/>
<path fill-rule="evenodd" clip-rule="evenodd" d="M112 133L112 128L116 128L116 133L112 133ZM112 153L112 143L116 143L116 153L112 153ZM112 168L112 163L116 163L116 168L112 168Z" fill="#F37878"/>
<path d="M125.234 107.798C125.299 113.867 120.513 125.716 114.452 125.781C108.391 125.846 103.351 114.103 103.286 108.033C103.221 101.964 108.081 96.991 114.142 96.9259C120.203 96.8609 125.169 101.728 125.234 107.798Z" fill="#F37878"/>
<path d="M117.492 106.29C118.744 108.178 118.228 110.723 116.34 111.975C114.452 113.227 111.906 112.711 110.655 110.823C109.403 108.935 109.919 106.389 111.807 105.138C113.695 103.886 116.24 104.402 117.492 106.29Z" fill="#F5F5F5"/>
<path d="M79.4772 107.353C110.032 118.449 108.169 155.426 103.419 172.527C95.9705 172.527 81.4236 169.994 75.3431 166.447C36.7322 148.966 41.3305 109.063 49.8812 92.5314C51.4013 92.9114 48.9229 96.2557 79.4772 107.353Z" fill="#7BCF82"/>
<path d="M131.895 83.9491C105.559 103.004 76.0045 80.7044 64.5193 67.1726C68.7009 61.0086 78.9642 50.3927 85.313 47.3521C121.456 25.214 151.896 51.421 160.776 67.7777C159.608 68.8223 158.232 64.8938 131.895 83.9491Z" fill="#7BCF82"/>
<path d="M167 117.5C167 131 164 142 143 152.5" stroke="#C5F5C9" stroke-width="11" stroke-linecap="round"/>
<path d="M132.689 159.535C130.388 159.329 129.174 156.71 130.503 154.821L139.951 141.388C141.28 139.499 144.155 139.757 145.127 141.852L152.036 156.751C153.007 158.846 151.347 161.208 149.046 161.001L132.689 159.535Z" fill="#C5F5C9"/>
<path d="M87.091 66.3694C97.3032 57.5399 107.586 52.6148 129.264 61.6329" stroke="#C5F5C9" stroke-width="11" stroke-linecap="round"/>
<path d="M141.33 64.8316C142.679 66.7064 141.492 69.3379 139.194 69.5683L122.853 71.2068C120.555 71.4372 118.869 69.0937 119.819 66.9884L126.57 52.0172C127.52 49.912 130.392 49.624 131.741 51.4988L141.33 64.8316Z" fill="#C5F5C9"/>
<path d="M90.0827 154.299C77.0427 150.805 67.1939 145.06 62.4869 122.058" stroke="#C5F5C9" stroke-width="11" stroke-linecap="round"/>
<path d="M58.3599 110.277C59.1544 108.109 61.9983 107.614 63.479 109.386L74.009 121.989C75.4897 123.761 74.4966 126.472 72.2215 126.868L56.0417 129.686C53.7665 130.082 51.9156 127.867 52.7101 125.698L58.3599 110.277Z" fill="#C5F5C9"/>
</svg>
