<svg width="10" height="14" viewBox="0 0 10 14" fill="none" xmlns="http://www.w3.org/2000/svg">
<path d="M8.24923 10.0164C7.75068 9.10624 6.6106 8.76975 5.69776 9.26331V9.26331C4.94371 9.67102 4.55939 10.5359 4.76218 11.3688L4.86861 11.8059C5.09119 12.7201 5.94613 13.3361 6.88374 13.258L7.53444 13.2038C8.73615 13.1036 9.36461 11.7264 8.65278 10.7531V10.7531L8.24923 10.0164Z" fill="#7B927D"/>
<path d="M4.52169 4.50372C4.02314 5.41385 2.88306 5.75034 1.97022 5.25678V5.25678C1.21617 4.84907 0.831853 3.98418 1.03464 3.15129L1.14107 2.71417C1.36365 1.80002 2.21859 1.18396 3.1562 1.26209L3.80691 1.31632C5.00861 1.41646 5.63708 2.79365 4.92525 3.767V3.767L4.52169 4.50372Z" fill="#7B927D"/>
<path d="M6.51074 11.3009L6.51081 13.3937C-0.185994 13.0589 -1.44169 4.60408 1.48818 2.09277V4.18553V4.18553C2.16942 4.41261 2.50114 5.17314 2.44929 5.88935C2.29078 8.07884 3.76418 10.3193 5.88485 11.1404C6.10159 11.2243 6.31183 11.281 6.51074 11.3009Z" fill="#7B927D"/>
</svg>
