<svg width="11" height="11" viewBox="0 0 11 11" fill="none" xmlns="http://www.w3.org/2000/svg">
<path d="M7.658 3.596L7.336 6.452C7.308 6.68533 7.364 6.84867 7.504 6.942C7.644 7.03533 7.77467 7.082 7.896 7.082C8.12933 7.082 8.33933 6.99333 8.526 6.816C8.71267 6.62933 8.862 6.368 8.974 6.032C9.086 5.68667 9.142 5.28067 9.142 4.814C9.142 4.198 9.002 3.65667 8.722 3.19C8.45133 2.72333 8.06867 2.35933 7.574 2.098C7.08867 1.82733 6.51933 1.692 5.866 1.692C5.32467 1.692 4.802 1.79 4.298 1.986C3.794 2.182 3.34133 2.46667 2.94 2.84C2.53867 3.204 2.22133 3.64733 1.988 4.17C1.764 4.69267 1.652 5.28067 1.652 5.934C1.652 6.634 1.81067 7.24067 2.128 7.754C2.44533 8.258 2.86533 8.64533 3.388 8.916C3.92 9.18667 4.49867 9.322 5.124 9.322C5.36667 9.322 5.62333 9.30333 5.894 9.266C6.16467 9.238 6.43067 9.18667 6.692 9.112C6.95333 9.03733 7.20067 8.944 7.434 8.832L7.77 9.84C7.322 10.0733 6.86 10.2273 6.384 10.302C5.908 10.386 5.43667 10.428 4.97 10.428C4.40067 10.428 3.84067 10.3207 3.29 10.106C2.74867 9.90067 2.26333 9.59733 1.834 9.196C1.40467 8.804 1.05933 8.33267 0.798 7.782C0.546 7.23133 0.42 6.61533 0.42 5.934C0.42 5.21533 0.546 4.53867 0.798 3.904C1.05 3.26 1.414 2.69533 1.89 2.21C2.366 1.71533 2.94 1.328 3.612 1.048C4.29333 0.767999 5.054 0.627999 5.894 0.627999C6.538 0.627999 7.126 0.730666 7.658 0.936C8.19 1.14133 8.652 1.43067 9.044 1.804C9.436 2.168 9.73933 2.602 9.954 3.106C10.1687 3.60067 10.276 4.142 10.276 4.73C10.276 5.29 10.2153 5.78467 10.094 6.214C9.97267 6.634 9.8 6.98867 9.576 7.278C9.36133 7.558 9.1 7.77267 8.792 7.922C8.49333 8.062 8.162 8.132 7.798 8.132C7.58333 8.132 7.378 8.09933 7.182 8.034C6.986 7.95933 6.818 7.852 6.678 7.712C6.51 7.81467 6.314 7.908 6.09 7.992C5.866 8.076 5.63733 8.118 5.404 8.118C4.592 8.118 3.99 7.91733 3.598 7.516C3.21533 7.11467 3.024 6.59667 3.024 5.962C3.024 5.52333 3.108 5.13133 3.276 4.786C3.45333 4.43133 3.69133 4.13267 3.99 3.89C4.298 3.638 4.63867 3.44667 5.012 3.316C5.39467 3.176 5.79133 3.106 6.202 3.106H7.266L7.658 3.596ZM5.39 7.082C5.586 7.082 5.75867 7.03533 5.908 6.942C6.05733 6.83933 6.16467 6.71333 6.23 6.564C6.22067 6.54533 6.21133 6.522 6.202 6.494C6.202 6.45667 6.20667 6.41933 6.216 6.382L6.51 4.072H6.286C5.93133 4.072 5.59533 4.142 5.278 4.282C4.97 4.422 4.718 4.632 4.522 4.912C4.33533 5.192 4.242 5.542 4.242 5.962C4.242 6.13933 4.27933 6.31667 4.354 6.494C4.42867 6.662 4.55 6.802 4.718 6.914C4.886 7.026 5.11 7.082 5.39 7.082Z" fill="#7E9680"/>
</svg>
