<svg width="25" height="32" viewBox="0 0 25 32" fill="none" xmlns="http://www.w3.org/2000/svg">
<path d="M24.375 12.1875C24.375 18.9185 18.9185 32 12.1875 32C5.45653 32 0 18.9185 0 12.1875C0 5.45653 5.45653 0 12.1875 0C18.9185 0 24.375 5.45653 24.375 12.1875Z" fill="#F37878"/>
<path d="M13.5737 6.39112L12.577 7.88095L12.3375 8.06892L12.2177 8.57017L12.3375 9.07142L13.6549 9.44736L14.9723 9.07142L17.727 10.0113L18.6252 13.9586L18.0863 15.2118L15.8107 18.3446L14.6729 18.9712H10.8404H8.08571L7.42699 17.2794L5.75024 16.089V12.7682L6.6485 10.8885L8.98396 10.0113L10.8404 9.07142L11.0799 8.57017L10.8404 8.06892L10.5409 7.9436L8.8642 7.3797L8.74443 6.9411L9.40315 6.69047L11.02 7.56767V7.44235C11.95 7.15856 12.7545 6.56458 13.2996 5.75944L13.4752 5.5H13.8024C13.8201 5.5 13.8345 5.51441 13.8345 5.53218C13.8345 5.838 13.7438 6.13694 13.5737 6.39112Z" fill="#5C5C5C"/>
</svg>
