<svg width="37" height="42" viewBox="0 0 37 42" fill="none" xmlns="http://www.w3.org/2000/svg">
<path fill-rule="evenodd" clip-rule="evenodd" d="M14.2228 21.9352C18.1119 21.235 20.697 17.5147 19.9968 13.6256C19.2966 9.73653 15.5763 7.15144 11.6872 7.85162C7.79818 8.55181 5.21308 12.2721 5.91327 16.1612C6.61345 20.0503 10.3338 22.6354 14.2228 21.9352ZM14.9316 25.8719C20.9948 24.7803 25.0251 18.9801 23.9335 12.9168C22.8419 6.85359 17.0417 2.82329 10.9785 3.91492C4.91523 5.00654 0.884937 10.8067 1.97656 16.87C3.06819 22.9332 8.86836 26.9635 14.9316 25.8719Z" fill="#244827"/>
<path fill-rule="evenodd" clip-rule="evenodd" d="M18.8971 21.509C19.7407 20.7959 21.0026 20.9018 21.7156 21.7453L31.8994 33.7935C32.6124 34.6371 32.5066 35.899 31.663 36.6121C30.8194 37.3251 29.5575 37.2193 28.8445 36.3757L18.6607 24.3275C17.9477 23.4839 18.0535 22.222 18.8971 21.509Z" fill="#244827"/>
</svg>
